<mxfile host="app.diagrams.net" modified="2022-09-08T08:17:05.194Z" agent="5.0 (Windows NT 10.0; Win64; x64) AppleWebKit/537.36 (KHTML, like Gecko) Chrome/103.0.0.0 Safari/537.36" etag="wBj6pv1tZywbeZoRSkVR" version="20.2.8" type="github">
  <diagram id="3YpMoLhUzwDuR2QkOn1u" name="第 1 页">
    <mxGraphModel dx="1320" dy="1151" grid="1" gridSize="10" guides="1" tooltips="1" connect="1" arrows="1" fold="1" page="1" pageScale="1" pageWidth="827" pageHeight="1169" math="0" shadow="0">
      <root>
        <mxCell id="0" />
        <mxCell id="1" parent="0" />
        <mxCell id="6UbjJTzrMqKHqa8Wt96P-3" value="预定会议" style="ellipse;whiteSpace=wrap;html=1;" vertex="1" parent="1">
          <mxGeometry x="40" y="10" width="100" height="80" as="geometry" />
        </mxCell>
      </root>
    </mxGraphModel>
  </diagram>
</mxfile>
